<svg xmlns="http://www.w3.org/2000/svg" width="81" height="78" viewBox="0 0 81 78">
  <path id="quotes_arrows" data-name="quotes arrows" d="M-244.565-2158.834c-2.054-3.317-4.145-6.612-6.224-9.915l0-.006a.636.636,0,0,1,.232-.89c1.633-.909,3.25-1.75,4.775-2.735a24.1,24.1,0,0,0,7.236-7.454,24.38,24.38,0,0,0,2.74-6.169,46.153,46.153,0,0,0,1.751-8.835c.2-2.066.34-4.138.5-6.208.017-.222,0-.446,0-.739h-19.852a.664.664,0,0,1-.664-.664v-32.228a.664.664,0,0,1,.664-.664h35.164a.65.65,0,0,1,.65.649c0,9.023.059,18.044-.032,27.065-.042,4.108-.266,8.223-.617,12.316a54.319,54.319,0,0,1-2.827,13.8,37.03,37.03,0,0,1-7.133,11.819,45.608,45.608,0,0,1-15.254,11.2,1.207,1.207,0,0,1-.494.144C-244.2-2158.345-244.361-2158.506-244.565-2158.834Zm43.641.167L-207.3-2168.8a.649.649,0,0,1,.266-.929c.59-.285,1.16-.56,1.724-.845a25.084,25.084,0,0,0,13.419-16.9,67.935,67.935,0,0,0,1.876-13.912c0-.1-.009-.206-.018-.391h-19.854a.665.665,0,0,1-.665-.664v-32.239a.665.665,0,0,1,.665-.665l35.581,0c.163,0,.23.068.23.329,0,7.13-.006,14.336-.022,21.466-.007,3.282.021,6.567-.078,9.847a86.015,86.015,0,0,1-2.312,18.746,37.371,37.371,0,0,1-10.21,17.4,46.514,46.514,0,0,1-13.42,9.139l0,0a.607.607,0,0,1-.255.056A.656.656,0,0,1-200.924-2158.667Z" transform="translate(254.573 2235.845)" fill="#c4a48f" stroke="rgba(0,0,0,0)" stroke-width="1"/>
</svg>
